<?xml version="1.0" encoding="utf-8"?>
<!-- Generator: Adobe Illustrator 27.0.0, SVG Export Plug-In . SVG Version: 6.00 Build 0)  -->
<svg version="1.1" id="Layer_1" xmlns="http://www.w3.org/2000/svg" xmlns:xlink="http://www.w3.org/1999/xlink" x="0px" y="0px"
	 viewBox="0 0 74 26" style="enable-background:new 0 0 74 26;" xml:space="preserve">
<style type="text/css">
	.st0{fill:#60BB46;}
	.st1{fill:#FFFFFF;}
</style>
<path d="M34.6,17.5c-0.7,1.7-2,2.6-3.8,2.8c-0.2,0-0.4,0-0.6,0c0,0-0.1,0-0.1,0c-0.6,0-1.2-0.1-1.7-0.2c-0.7-0.2-1.3-0.5-1.9-1
	c-0.2-0.1-0.3-0.2-0.5-0.3c-0.2-0.1-0.3-0.1-0.4,0.1c-0.1,0.1-0.1,0.2-0.2,0.3c-0.1,0.1-0.1,0.2-0.2,0.2c-0.1,0-0.2,0.1-0.3,0
	c-0.1,0-0.1-0.2-0.1-0.3c0.1-1.5,0.3-2.9,0.4-4.4c0-0.2,0-0.2,0.3-0.2c0.4,0,0.4,0,0.4,0.4c0.1,1.3,0.5,2.4,1.4,3.3
	c1.1,1.1,3,1.5,4.4,0.8c1-0.5,1.5-1.2,1.6-2.3c0.1-1-0.1-2-0.8-2.8c-0.4-0.5-0.9-0.8-1.5-1.1c-0.5-0.2-0.9-0.4-1.4-0.6
	c-1.1-0.4-2.1-0.8-3.1-1.6c-0.9-0.7-1.3-1.7-1.5-2.8c-0.1-0.7-0.2-1.5,0.1-2.2c0.6-1.7,1.7-2.8,3.6-3.1c1.2-0.2,2.4-0.1,3.5,0.3
	C32.4,3,32.6,3,32.7,3.1C32.9,3.2,33,3.2,33.2,3c0.1-0.1,0.3-0.3,0.5-0.4c0.2-0.1,0.3-0.1,0.3,0.1C34,3,34,3.3,34,3.5
	c0.1,0.9,0.2,1.8,0.3,2.6c0,0.2,0,0.4,0.1,0.7c0,0.2,0,0.2-0.2,0.3c-0.3,0.1-0.3,0.1-0.4-0.2c-0.3-1-0.9-1.9-1.7-2.7
	c-0.6-0.6-1.4-0.8-2.2-0.8c-0.6,0-1.1,0-1.7,0.3c-0.8,0.4-1.2,1.1-1.4,2c-0.2,0.9,0,1.8,0.6,2.6c0.4,0.4,0.9,0.7,1.3,0.9
	c0.8,0.4,1.6,0.6,2.4,0.9c0.6,0.2,1.2,0.4,1.7,0.7c1.4,0.8,2.1,2,2.2,3.6C35.2,15.4,35.1,16.5,34.6,17.5z"/>
<path d="M63.3,10v0.3c0,0.2,0,0.3-0.3,0.3c-0.1,0-0.3,0-0.4,0c-0.4,0-0.8,0.2-1,0.6c-0.4,0.9-0.8,1.8-1.1,2.7c-0.8,2-1.6,4-2.4,6
	c-0.1,0.1-0.1,0.2-0.2,0.3c-0.2,0.1-0.4,0.1-0.5-0.2c-0.1-0.2-0.2-0.5-0.3-0.7c-0.7-2.1-1.4-4.2-2.1-6.3c0,0-0.1-0.1-0.1-0.1
	c0,0-0.1,0.1-0.1,0.1c-0.9,2.2-1.9,4.4-2.8,6.6c0,0.1-0.1,0.2-0.1,0.3c-0.1,0.2-0.2,0.3-0.5,0.3c-0.2,0-0.3-0.2-0.3-0.4
	c-0.2-0.4-0.3-0.9-0.5-1.3c-0.9-2.5-1.8-4.9-2.7-7.4c-0.2-0.4-0.4-0.6-0.9-0.6c-0.2,0-0.4,0-0.6,0c-0.1,0-0.2-0.1-0.2-0.2
	c0-0.2,0-0.3,0-0.5c0-0.2,0.1-0.2,0.2-0.2c0.5,0,1,0.1,1.5,0.1c0.8,0,1.7,0,2.5-0.1c0.3,0,0.3,0,0.3,0.3c0,0.1,0,0.3,0,0.4
	c0,0.1-0.1,0.2-0.2,0.2c-0.1,0-0.1,0-0.2,0c-0.2,0-0.4,0.2-0.4,0.4c0,0.1,0,0.2,0.1,0.2c0.6,2.1,1.2,4.2,1.8,6.3
	c0,0.1,0.1,0.1,0.1,0.1c0,0,0.1-0.1,0.1-0.1c0.8-1.9,1.6-3.8,2.3-5.7c0.2-0.5-0.2-1.1-0.7-1.1c-0.2,0-0.3,0-0.5,0
	c-0.1,0-0.2-0.1-0.2-0.2c0-0.1,0-0.3,0-0.4c0-0.3,0.1-0.3,0.3-0.3c0.4,0,0.8,0.1,1.2,0.1c0.9,0,1.7,0,2.6-0.1c0.3,0,0.3,0,0.3,0.3
	c0,0.1,0,0.2,0,0.4c0,0.1-0.1,0.2-0.2,0.2c-0.1,0-0.3,0-0.4,0c-0.3,0-0.5,0.3-0.4,0.5c0.1,0.3,0.2,0.6,0.3,1c0.5,1.6,1,3.2,1.5,4.9
	c0,0.1,0,0.1,0.1,0.2c0,0,0,0,0.1,0c0,0,0-0.1,0.1-0.1c0.6-1.7,1.3-3.4,1.9-5.1c0.1-0.3,0.2-0.6,0.2-0.8c0-0.3-0.2-0.5-0.5-0.5
	c-0.5,0-0.4,0-0.4-0.4c0-0.5,0-0.5,0.4-0.4c1.1,0.1,2.1,0.1,3.2,0C63.2,9.8,63.3,9.8,63.3,10z"/>
<path d="M72.5,18.4C72.4,18.4,72.4,18.4,72.5,18.4c-0.1,0.1-0.2,0.1-0.2,0.2c-0.3,0.2-0.6,0.4-0.9,0.3c-0.3-0.1-0.4-0.4-0.5-0.7
	c-0.1-0.4-0.1-0.7-0.1-1.1c0-1.8,0-3.5,0-5.3c0-0.3,0-0.6-0.1-0.9c-0.2-0.7-0.8-1.1-1.6-1.2c-1.1-0.2-2.2,0-3.2,0.5
	c-0.6,0.3-1.2,0.7-1.6,1.2c-0.3,0.4-0.6,0.9-0.6,1.4c0,0.6,0.2,0.7,0.8,0.7c0,0,0,0,0.1,0c0.6,0,0.9-0.3,1-0.9c0.1-0.4,0-0.7,0-1
	c0-0.2,0-0.4,0.2-0.6c0.1-0.1,0.2-0.2,0.3-0.2c0.5-0.2,1-0.3,1.6-0.3c0.8,0.1,1.2,0.4,1.3,1.3c0.1,0.7,0.1,1.3,0.1,2
	c0,0.1,0,0.2-0.1,0.2c-0.6,0.3-1.1,0.6-1.7,0.9c-0.6,0.3-1.2,0.6-1.8,0.9c-0.4,0.2-0.8,0.5-1,0.9c-0.6,0.8-0.6,1.7-0.2,2.6
	c0.2,0.5,0.6,0.8,1.1,0.9c0.6,0.1,1.1,0.1,1.7-0.2c0.9-0.3,1.7-0.7,2.3-1.4c0,0,0,0,0,0c0,0,0,0.1,0,0.1c0.1,0.4,0.3,0.9,0.7,1.1
	c0.9,0.6,2.4,0.3,2.9-1.1C72.9,18.7,72.6,18.4,72.5,18.4z M68.6,18.3c-0.4,0.4-0.8,0.6-1.3,0.8c-0.8,0.2-1.5-0.3-1.5-1.1
	c0-0.7,0.2-1.4,0.8-1.8c0.4-0.4,0.9-0.7,1.4-0.9c0.3-0.2,0.7-0.3,1-0.5v0.2c0,0.8,0,1.7,0,2.5C69,17.7,68.9,18,68.6,18.3z"/>
<path d="M45.6,17.1c-0.2-0.1-0.3-0.1-0.4,0.1c-0.7,1.2-2.2,1.9-3.6,1.5c-1.1-0.3-1.7-1-2.2-1.9c-0.5-1-0.5-2-0.4-3.1
	c0-0.1,0.1-0.2,0.2-0.2c1,0,1.9,0,2.9,0c0.9,0,1.9,0,2.8,0c0.1,0,0.2,0,0.4,0c0.3,0,0.3-0.2,0.3-0.4c0-0.5-0.2-1-0.4-1.4
	c-0.4-1-1.1-1.7-2.1-1.9c-1-0.3-2.1-0.2-3.1,0.2c-1.2,0.5-2,1.4-2.5,2.6C37,14,37,15.5,37.4,17c0.3,1,0.8,1.9,1.7,2.5
	c1.1,0.8,2.4,1,3.7,0.7c1.4-0.3,2.3-1.2,3-2.5C45.9,17.3,45.9,17.3,45.6,17.1z M40.3,10.8c0.6-0.5,1.3-0.6,2.1-0.3
	c0.6,0.2,0.9,0.7,1,1.2c0.1,0.2,0.1,0.5,0.1,0.7c0,0.2-0.1,0.3-0.2,0.3c-0.1,0-0.2,0.1-0.4,0.1c-1.2,0-2.4,0-3.6,0c0,0-0.1,0-0.1,0
	C39.3,12,39.6,11.3,40.3,10.8z"/>
<path class="st0" d="M22,12.8c-1.1,0-2.2,0-3.3,0c-0.1,0-0.2,0-0.2-0.2c0-0.3,0-0.5,0-0.8c0-0.3,0-0.6,0-0.9c0.1,0,0.1,0,0.2,0
	c1.1,0,2.2,0,3.3,0c0.1,0,0.1,0,0.2,0c0-0.3-0.1-0.7-0.1-1c-0.2-1-0.5-1.9-1-2.8c-0.6-1.1-1.4-2.1-2.3-2.9c-1.2-1-2.6-1.7-4.1-2
	c-1.2-0.3-2.4-0.3-3.6-0.1C8.7,2.6,6.8,3.7,5.3,5.4C3.2,7.9,2.5,10.8,3.1,14c0.5,2.6,2,4.7,4.2,6.1c1.2,0.8,2.6,1.3,4,1.5
	c0,0,0.1,0,0.1,0c0,0,0,0,0,0c0,0,0.1,0,0.1,0s0.1,0,0.2,0c0,0,0,0,0,0c0.1,0,0.2,0,0.3,0c0.3,0,0.6,0,0.9,0c0.1,0,0.2,0,0.3,0
	c0,0,0,0,0,0c0,0,0,0,0,0c0.1,0,0.1,0,0.2,0c0.3,0,0.6-0.1,0.8-0.1c1.1-0.2,2.1-0.6,3-1.1c0.6-0.4,1.2-0.8,1.8-1.3
	c0.6-0.6,1.1-1.2,1.6-1.9c0.5-0.8,0.9-1.7,1.2-2.6c0.1-0.5,0.2-1,0.3-1.5C22.2,12.8,22.2,12.8,22,12.8z M16.6,14.3
	c-0.2,0.8-0.6,1.5-1.2,2.1c-0.8,0.9-1.8,1.3-3,1.4c-0.8,0.1-1.6,0-2.4-0.3c-0.9-0.3-1.5-1-2.1-1.7c-0.6-0.8-0.8-1.6-1-2.5
	c-0.2-1.1-0.3-2.2,0-3.3c0.3-1.2,1-2.3,2.1-3c0.7-0.4,1.9-0.8,2.8-0.8c1.4,0,2.4,0.6,3.1,1.8c0.3,0.4,0.5,0.8,0.6,1.3
	c0.1,0.4,0,0.5-0.4,0.6c-0.5,0.1-0.7,0.2-1.2,0.2c-1.7,0.3-3.6,0.5-5.3,0.8c-0.1,0-0.1,0-0.1,0.1c0.1,1.6,0.5,3,1.7,4.1
	c1.4,1.3,3.4,1,4.6,0c0.5-0.4,0.8-0.9,1-1.4c0.1-0.2,0.2-0.2,0.3-0.1c0,0,0.1,0,0.1,0C16.7,14,16.7,14,16.6,14.3z"/>
<path class="st1" d="M16.4,13.9C16.4,13.8,16.3,13.8,16.4,13.9c-0.3-0.1-0.4,0-0.4,0.1c-0.2,0.6-0.6,1-1,1.4c-1.2,1-3.1,1.3-4.6,0
	c-1.2-1.1-1.6-2.6-1.7-4.1c0-0.1,0-0.1,0.1-0.1c1.7-0.3,3.6-0.5,5.3-0.8c0.5-0.1,0.7-0.1,1.2-0.2c0.4-0.1,0.5-0.2,0.4-0.6
	c-0.1-0.5-0.3-0.9-0.6-1.3C14.4,7,13.4,6.3,12,6.3c-0.9,0-2.1,0.3-2.8,0.8c-1.1,0.7-1.8,1.7-2.1,3c-0.3,1.1-0.3,2.2,0,3.3
	c0.2,0.9,0.5,1.8,1,2.5c0.6,0.7,1.2,1.4,2.1,1.7c0.8,0.3,1.6,0.3,2.4,0.3c1.2-0.1,2.2-0.5,3-1.4c0.6-0.6,0.9-1.3,1.2-2.1
	C16.7,14,16.7,14,16.4,13.9z M9,10.1C9.1,9.6,9.2,9,9.4,8.6c0.4-0.7,0.9-1.2,1.7-1.3c1-0.2,1.7,0.2,2.2,1.1c0.1,0.3,0.2,0.6,0.3,0.8
	c0,0.2-0.1,0.2-0.2,0.3c-0.2,0.1-0.4,0.1-0.6,0.2c-1.2,0.2-2.4,0.4-3.7,0.6C9,10.3,9,10.3,9,10.1z"/>
<path class="st0" d="M13.6,9.2c0,0.2-0.1,0.2-0.2,0.3c-0.2,0.1-0.4,0.1-0.6,0.2c-1.2,0.2-2.4,0.4-3.7,0.6c-0.1,0-0.2,0-0.1-0.1
	c0.1-0.6,0.2-1.1,0.5-1.6c0.4-0.7,0.9-1.2,1.7-1.3c1-0.2,1.7,0.2,2.2,1.1C13.4,8.7,13.5,8.9,13.6,9.2z"/>
</svg>
