<?xml version="1.0" encoding="utf-8"?>
<!-- Generator: Adobe Illustrator 27.0.0, SVG Export Plug-In . SVG Version: 6.00 Build 0)  -->
<svg version="1.1" id="Layer_1" xmlns="http://www.w3.org/2000/svg" xmlns:xlink="http://www.w3.org/1999/xlink" x="0px" y="0px"
	 viewBox="0 0 360 188.3" style="enable-background:new 0 0 360 188.3;" xml:space="preserve">
<style type="text/css">
	.st0{fill:#080B10;}
	.st1{fill-rule:evenodd;clip-rule:evenodd;fill:#FFFFFF;}
</style>
<g>
	<g>
		<defs>
			<path id="SVGID_1_" d="M212.3,130c0,4.7-4.3,8.5-9,8.5H43.1c-4.7,0-7.9-3.8-7.9-8.5V58.3c0-4.7,3.3-8.5,7.9-8.5h160.2
				c4.7,0,9,3.8,9,8.5V130z"/>
		</defs>
		<use xlink:href="#SVGID_1_"  style="overflow:visible;fill:#CF2027;"/>
		<clipPath id="SVGID_00000053508335092273068790000018175499089181288838_">
			<use xlink:href="#SVGID_1_"  style="overflow:visible;"/>
		</clipPath>
	</g>
	<g>
		<path class="st0" d="M237.6,77.1c-4,0-7.2,1.6-9.4,4.9H228v-4h-10.7v45.7h11.2v-15.2h0.1c2.3,3.1,5.6,4.7,9.8,4.7
			c9.7,0,14.4-8.4,14.4-17.3C252.9,86.3,248.3,77.1,237.6,77.1z M235,104.7c-5.1,0-6.8-3.9-6.8-9.9c0-7.1,3.9-9.2,6.9-9.2
			c5,0,6.7,4.8,6.7,9.2C241.7,99.5,239.9,104.7,235,104.7z"/>
		<path class="st0" d="M288,88.6c0-9.7-7.8-11.5-16-11.5c-4,0-7.8,0.6-10.9,2.4c-3.1,1.8-5.1,4.7-5.3,9.2h10.5
			c0.5-2.8,2.4-4.3,5.6-4.3c2.3,0,5.4,1,5.4,3.6c0,2.1-1.1,2.7-3,3.2c-7.8,1.6-19.9,0.8-19.9,11.9c0,7.1,5.1,10.3,11.7,10.3
			c4.2,0,8.4-1.1,11.3-4.2c0.2,1.1,0.2,2.2,0.7,3.2h11.3c-1.3-2.7-1.3-5.9-1.3-8.8V88.6z M270.3,106.4c-2.6,0-4.7-1.1-4.7-3.9
			c0-2.7,2-3.8,4.6-4.3c2.4-0.7,5.3-0.9,6.9-1.8C277.4,103.4,275.6,106.4,270.3,106.4z"/>
		<path class="st0" d="M313.4,78.1l-6.5,22.3h-0.1l-6.5-22.3h-11.9l8.8,23.8c0.7,1.8,2.8,7.1,2.8,9c0,2.4-1.9,3.8-4.5,3.8h-3.9v9.1
			h5.3c7.5,0,11.7-0.9,14.3-8.4l13.5-37.2H313.4z"/>
	</g>
	<g>
		<path class="st1" d="M184.3,94.7c-0.9-3-2.2-5.5-4-7.5c-1.8-2-4.1-3.6-6.9-4.6c-2.8-1.1-6.2-1.6-10-1.6c-3.1,0-5.9,0.5-8.5,1.6
			c-2.5,1.1-4.7,2.6-6.5,4.4c-1.3,1.4-2.4,2.9-3.3,4.6c-0.2-1.2-0.5-2.3-0.9-3.3c-0.7-1.7-1.7-3-3-4.1c-1.3-1.1-2.7-1.9-4.3-2.5
			c-1.6-0.6-3.3-0.8-5-0.8c-3,0-5.5,0.5-7.6,1.5c-2,1-3.8,2.5-5.2,4.4H119v-5h-14.4v8.9c-0.7-1.3-1.6-2.5-2.6-3.6
			c-1.7-1.9-3.9-3.4-6.6-4.5c-2.7-1.1-5.9-1.7-9.5-1.7c-3.7,0-6.8,0.6-9.5,1.7c-2.1,0.9-3.9,2-5.5,3.4V82H63c-0.1-1.8,0.2-3,0.9-3.7
			c0.7-0.7,1.9-1,3.7-1c0.6,0,1.2,0.1,1.8,0.2c0.6,0.1,1.2,0.2,1.8,0.3V67.6c-1.2,0-2.3-0.1-3.4-0.2c-1.1-0.1-2.2-0.1-3.4-0.1
			c-3,0-5.5,0.2-7.6,0.6c-2,0.4-3.9,1.4-5.5,3.1c-1.5,1.5-2.4,3.2-2.7,5.2c-0.4,2-0.5,3.9-0.4,5.8h-6.1v9.2h6.1v29.9h14.9V91.2h3.6
			c-0.4,0.8-0.8,1.7-1.1,2.6c-0.9,2.5-1.3,5.1-1.3,7.8c0,2.7,0.4,5.3,1.3,7.8c0.9,2.5,2.1,4.7,3.9,6.6c1.7,1.9,3.9,3.4,6.6,4.5
			c2.7,1.1,5.9,1.7,9.5,1.7c3.7,0,6.8-0.6,9.5-1.7c2.7-1.1,4.9-2.6,6.6-4.5c1-1.1,1.9-2.3,2.6-3.6v8.9h14.9v-20.7
			c0-1.6,0.2-2.8,0.6-3.8c0.4-1,0.9-1.7,1.4-2.3c0.6-0.6,1.2-0.9,1.9-1.1c0.7-0.2,1.4-0.3,2-0.3c1.1,0,2,0.2,2.6,0.6
			c0.6,0.4,1.1,0.9,1.5,1.6c0.4,0.7,0.6,1.5,0.7,2.4c0.1,1,0.2,2,0.2,3.1v20.5h14.9v-8.9c1,1.8,2.2,3.3,3.7,4.6c2,1.7,4.3,3.1,7,4
			c2.7,0.9,5.6,1.4,8.7,1.4c2.2,0,4.4-0.3,6.4-0.8c2.1-0.5,4-1.3,5.8-2.3c1.8-1,3.4-2.3,4.7-3.8c1.4-1.6,2.4-3.4,3.2-5.5h-13.9
			c-0.6,1-1.5,1.7-2.7,2.1c-1.2,0.5-2.4,0.7-3.6,0.7c-2.4,0-4.2-0.7-5.5-2.1c-1.3-1.4-2-3.2-2.2-5.5h28.6
			C185.6,101.1,185.2,97.7,184.3,94.7z M92,104.8c-0.1,1.1-0.4,2.2-0.9,3.1c-0.5,1-1.1,1.7-2,2.4c-0.9,0.6-2,0.9-3.4,0.9
			c-1.4,0-2.5-0.3-3.4-0.9c-0.9-0.6-1.5-1.4-2-2.4c-0.5-1-0.7-2-0.9-3.1c-0.1-1.1-0.2-2.2-0.2-3.3c0-1.1,0.1-2.1,0.2-3.3
			c0.1-1.1,0.4-2.2,0.9-3.1c0.5-0.9,1.1-1.7,2-2.3c0.9-0.6,2-0.9,3.4-0.9c1.4,0,2.5,0.3,3.4,0.9c0.9,0.6,1.5,1.4,2,2.3
			c0.5,0.9,0.7,2,0.9,3.1c0.1,1.1,0.2,2.2,0.2,3.3C92.2,102.5,92.2,103.6,92,104.8z M157,97.1c0.4-2.1,1.2-3.7,2.4-4.9
			c1.3-1.1,3-1.7,5.3-1.7c1.9,0,3.5,0.6,4.7,1.9c1.2,1.3,1.8,2.8,1.8,4.6H157z"/>
		<path class="st1" d="M178.5,66.1c-0.1,1.7-0.3,3.5-0.4,5.2c9.4,1.6,14.8,7,16.4,16.4c1.8-0.1,3.5-0.3,5.3-0.4
			C199,74.4,187.6,66,178.5,66.1z"/>
		<path class="st1" d="M179.2,76.2c-0.1,1.7-0.3,3.5-0.4,5.3c3.2,0.5,4.9,2.5,5.5,5.4c1.8-0.2,3.6-0.3,5.3-0.4
			C189.6,81.4,184.1,75.9,179.2,76.2z"/>
	</g>
</g>
</svg>
